{"title":"ET_The Extra Terrestrial (1982) 1080p BRRip x264 {inyd}","uid":9471478,"size":4011734303,"categoryP":"video","categoryS":"hd___movies","magnet":"?xt=urn:btih:3d968e920a2a386c141d883cf012503b04b386d2&amp;dn=ET_The+Extra+Terrestrial+%281982%29+1080p+BRRip+x264+%7Binyd%7D&amp;tr=udp%3A%2F%2Ftracker.openbittorrent.com%3A80&amp;tr=udp%3A%2F%2Fopen.demonii.com%3A1337&amp;tr=udp%3A%2F%2Ftracker.coppersurfer.tk%3A6969&amp;tr=udp%3A%2F%2Fexodus.desync.com%3A6969","seeders":10,"leechers":2,"uploader":"imPROvise","files":-1,"time":1389586924,"description":"General\nComplete name                            : ET_The Extra Terrestrial (1982)  (Anniversary Edition)\nFormat                                   : MPEG-4\nFormat profile                           : Base Media / Version 2\nCodec ID                                 : mp42\nFile size                                : 3.74 GiB\nDuration                                 : 1h 54mn\nOverall bit rate mode                    : Variable\nOverall bit rate                         : 4 668 Kbps\nEncoded date                             : UTC 2014-01-12 23:43:17\nTagged date                              : UTC 2014-01-13 01:57:55\n\nVideo\nID                                       : 1\nFormat                                   : AVC\nFormat/Info                              : Advanced Video Codec\nFormat profile                           : &lt;a class=&quot;__cf_email__&quot; href=&quot;/cdn-cgi/l/email-protection&quot; data-cfemail=&quot;4a02232d220a067e647b&quot;&gt;[email&amp;#160;protected]&lt;/a&gt;&lt;script cf-hash='f9e31' type=&quot;text/javascript&quot;&gt;\n/* &lt;![CDATA[ */!function(){try{var t=&quot;currentScript&quot;in document?document.currentScript:function(){for(var t=document.getElementsByTagName(&quot;script&quot;),e=t.length;e--;)if(t[e].getAttribute(&quot;cf-hash&quot;))return t[e]}();if(t&amp;&amp;t.previousSibling){var e,r,n,i,c=t.previousSibling,a=c.getAttribute(&quot;data-cfemail&quot;);if(a){for(e=&quot;&quot;,r=parseInt(a.substr(0,2),16),n=2;a.length-n;n+=2)i=parseInt(a.substr(n,2),16)^r,e+=String.fromCharCode(i);e=document.createTextNode(e),c.parentNode.replaceChild(e,c)}}}catch(u){}}();/* ]]&gt; */&lt;/script&gt;\nFormat settings, CABAC                   : Yes\nFormat settings, ReFrames                : 2 frames\nCodec ID                                 : avc1\nCodec ID/Info                            : Advanced Video Coding\nDuration                                 : 1h 54mn\nBit rate                                 : 4 216 Kbps\nWidth                                    : 1 476 pixels\nHeight                                   : 800 pixels\nDisplay aspect ratio                     : 1.85:1\nFrame rate mode                          : Variable\nFrame rate                               : 23.976 fps\nMinimum frame rate                       : 11.990 fps\nMaximum frame rate                       : 90.000 fps\nColor space                              : YUV\nChroma subsampling                       : 4:2:0\nBit depth                                : 8 bits\nScan type                                : Progressive\nBits/(Pixel*Frame)                       : 0.149\nStream size                              : 3.38 GiB (90%)\nWriting library                          : x264 core\nColor primaries                          : BT.709\nTransfer characteristics                 : BT.709\nMatrix coefficients                      : BT.709\n\nAudio\nID                                       : 2\nFormat                                   : AAC\nFormat/Info                              : Advanced Audio Codec\nFormat profile                           : LC\nCodec ID                                 : 40\nDuration                                 : 1h 54mn\nBit rate mode                            : Variable\nBit rate                                 : 447 Kbps\nMaximum bit rate                         : 601 Kbps\nChannel(s)                               : 6 channels\nChannel positions                        : Front: L C R, Side: L R, LFE\nSampling rate                            : 48.0 KHz\nCompression mode                         : Lossy\nStream size                              : 367 MiB (10%)\n\nScreens: &lt;a href=&quot;\nhttp://postimg.org/image/7ctt68o01/&quot; rel=&quot;nofollow&quot; target=&quot;_NEW&quot;&gt;\nhttp://postimg.org/image/7ctt68o01/&lt;/a&gt; &lt;a href=&quot;\nhttp://postimg.org/image/8aasb4nwf/&quot; rel=&quot;nofollow&quot; target=&quot;_NEW&quot;&gt;\nhttp://postimg.org/image/8aasb4nwf/&lt;/a&gt; &lt;a href=&quot;\nhttp://postimg.org/image/zfnqvmu4f/&quot; rel=&quot;nofollow&quot; target=&quot;_NEW&quot;&gt;\nhttp://postimg.org/image/zfnqvmu4f/&lt;/a&gt; &lt;a href=&quot;\nhttp://postimg.org/image/i1mgirm9d/&quot; rel=&quot;nofollow&quot; target=&quot;_NEW&quot;&gt;\nhttp://postimg.org/image/i1mgirm9d/&lt;/a&gt;\n\nEnjoy and Please help seed as much as possible for others!!! - inotyourdaddy {inyd}\n\nJoin me on SuprBay: The PirateBay Forum - Report any fake torrents, torrents with passwords, malware, viruses, or spam comments. Have any site issues that need attended to ask on the forum. Request for any video, music, software, or other can be made on the forum. Don't forget to hit my rep. button :) -   &lt;a href=&quot; https://forum.suprbay.org/member.php?action=register&amp;referrer=251&quot; rel=&quot;nofollow&quot; target=&quot;_NEW&quot;&gt; https://forum.suprbay.org/member.php?action=register&amp;referrer=251&lt;/a&gt;\n","torrent":{"xt":"urn:btih:3d968e920a2a386c141d883cf012503b04b386d2","amp;dn":"ET_The+Extra+Terrestrial+%281982%29+1080p+BRRip+x264+%7Binyd%7D","amp;tr":["udp%3A%2F%2Ftracker.openbittorrent.com%3A80","udp%3A%2F%2Fopen.demonii.com%3A1337","udp%3A%2F%2Ftracker.coppersurfer.tk%3A6969","udp%3A%2F%2Fexodus.desync.com%3A6969"],"infoHash":"3d968e920a2a386c141d883cf012503b04b386d2","infoHashBuffer":{"type":"Buffer","data":[61,150,142,146,10,42,56,108,20,29,136,60,240,18,80,59,4,179,134,210]},"announce":[],"urlList":[]}}